<svg xmlns="http://www.w3.org/2000/svg" viewBox="0 0 108.94 235.78">
    <defs>
        <style>.cls-1{fill:#FFF;}</style>
    </defs>
    <title>Jayden Outline</title>
    <g id="Layer_2" data-name="Layer 2">
        <g id="Layer_1-2" data-name="Layer 1">
            <path class="cls-1" d="M24.06,235.77c-4.6-.05-9.2,0-13.78-.31a30.18,30.18,0,0,1-8-1.45c-2.22-.79-2.42-1.45-2.24-3.77.24-3,1.64-5.66,2.33-8.51.86-3.52,1.19-7.14,2.07-10.67a14,14,0,0,1,3.63-6.6c7.05-7.31,15.21-13.18,23.84-18.44,15.65-9.53,32.37-16.74,49.64-22.76,4-1.38,8-2.58,11.93-3.92.79-.26,1.1-.15,1.35.69q7,23.44,14,46.87c.25.83,0,1.1-.74,1.38Q72.29,221.8,36.48,235.36a9.07,9.07,0,0,1-3.18.41C30.22,235.79,27.14,235.77,24.06,235.77Z"/>
            <path class="cls-1" d="M68,75.59c-24.1,8.13-47,17.68-66.19,34.59a9.14,9.14,0,0,1-.47-3.2A58.45,58.45,0,0,1,2.45,87.47c1-4.08,3.56-7.08,6.84-9.55,3.77-2.83,7.77-5.36,11.05-8.8a29.55,29.55,0,0,0,7.58-12.86,9.82,9.82,0,0,0,.14-3.46,3.36,3.36,0,0,0-4.24-3c-2.4.58-4.74,1.4-7.15,1.93-4.86,1.07-9.21-1.63-10.08-6.26-.52-2.78.42-5.37,1.54-7.87A19.07,19.07,0,0,1,15.86,29a1.67,1.67,0,0,0,.86-2.18,12,12,0,0,0-1.26-3.08A6.14,6.14,0,0,1,15,18.25c.36-1.05.82-2.08,1.22-3.12a13.43,13.43,0,0,1,7.46-8,45.54,45.54,0,0,0,6.15-3.48A22.37,22.37,0,0,1,46.68.47a11.93,11.93,0,0,1,7.39,5.16,56.68,56.68,0,0,1,3.17,5.22c.85,1.5,1,1.54,2.67,1.14,3.41-.79,6.79-1.83,10.37-1.61a11.65,11.65,0,0,1,6.81,2.27c2.44,1.95,3,4.53,2.18,7.44-1,3.69-3.25,6.64-5.55,9.56a26.11,26.11,0,0,1-7.91,6.88A1.28,1.28,0,0,0,65,38.09c1.54,5.83-.31,11-3,16.07a21.86,21.86,0,0,1-6.77,8.11c-1.7,1.17-1.9,2.12-1.06,4,1.49,3.36,4.26,5.4,7.42,7A40,40,0,0,0,68,75.59Z"/>
            <path class="cls-1" d="M9.48,194.17c.38-2.7.92-5.11,1.17-7.57a50,50,0,0,0,.12-7.54,7.88,7.88,0,0,1,1.08-4.45c3-5.39,7.39-9.6,12.1-13.48,9.49-7.85,20.23-13.64,31.36-18.76a264.49,264.49,0,0,1,44.44-15.46c.92-.24,1.28,0,1.5.86.56,2.28,1.21,4.54,1.8,6.82A39.16,39.16,0,0,0,106,141.9a20.8,20.8,0,0,1,1.68,4.85c.33,1.68.17,1.92-1.46,2.35a322.68,322.68,0,0,0-62.49,23.1,170.27,170.27,0,0,0-33.43,21.38C10.1,193.73,9.9,193.86,9.48,194.17Z"/>
            <path class="cls-1" d="M12.09,163.43c-.16-2.12-.24-4.06-.46-6-.45-3.93-1.71-7.69-2.58-11.54s-1.39-3,1.74-5.77A115.68,115.68,0,0,1,34,124.53c15.68-8.32,32.26-14.34,49.33-19.1,2-.54,3.94-1,5.89-1.57a1.21,1.21,0,0,1,1.71.71q3.7,7.46,7.51,14.86c.43.84.39,1.14-.63,1.4A282.64,282.64,0,0,0,62,132.52c-12.44,5.1-24.48,10.93-35.55,18.66a102,102,0,0,0-13.26,11.2C12.9,162.7,12.55,163,12.09,163.43Z"/>
            <path class="cls-1" d="M6.47,135.32c-.66-3.12-1.29-6-1.89-8.87-.44-2.1-.79-4.23-1.32-6.32a3.06,3.06,0,0,1,.94-3.21c6.32-6.46,13.67-11.52,21.4-16.08,13-7.71,27-13.38,41.39-18,3.3-1.06,6.61-2.11,9.88-3.24a2.07,2.07,0,0,1,2.54.64,15.12,15.12,0,0,1,2.75,4.19c1.69,4,3.36,8.1,5.13,12.11.43,1,.1,1.21-.75,1.43A279,279,0,0,0,51.9,109.27c-13,5.25-25.53,11.34-37,19.47C12.06,130.75,9.34,132.9,6.47,135.32Z"/>
        </g>
    </g>
</svg>