<svg xmlns="http://www.w3.org/2000/svg" viewBox="0 0 934.8 309.82"><defs><style>.cls-1{fill:#fff;}</style></defs><title>What The Cancer Logo</title><g id="Layer_2" data-name="Layer 2"><g id="Logo_Green" data-name="Logo Green"><g id="Logo"><path class="cls-1" d="M379.65,37.72V39c-3.38,0-8.22,1.76-15,17.54L352,89.37h-1.25L337.61,57.68,325.87,89.37h-1.25L306.21,44.91C303.86,39,301.37,39,299.46,39V37.72h23.4V39c-6.45,0-3.3,8.51-3.3,8.51l10.56,26.78L337,55.85l-4.18-10.94C330.49,39,327.92,39,326,39V37.72h23.4V39c-6.6,0-3.3,8.51-3.3,8.51l10.42,27.07,7-18.41S370.48,39,358,39V37.72Z"/><path class="cls-1" d="M421.47,88.13v1.24h-15V88.13c2.79-.81,2.94-4,2.94-7.78V66.48c0-4.18-1.91-6.16-6.17-6.16-2.05,0-4.55,1.47-6.09,4.4V80.35c0,4,.37,7,3,7.7v1.32H385V88.05c2.79-.8,2.93-4,2.93-7.7v-37c0-2.56-.73-3.3-3.67-4.4V37.72l12.84-3.08v28.1c1.4-3.89,7.56-7.92,12.11-7.92,5.87,0,9.24,2.57,9.24,11.37V80.35C418.46,84.38,418.9,87.47,421.47,88.13Z"/><path class="cls-1" d="M463.07,84.31l1.25.51c-.59,2.35-4,5.21-8.59,5.21,0,0-6.53,0-7.33-5.94C447.3,87.32,443,90,437.76,90c0,0-8.44,0-8.44-7.48,0-8,6.17-8.73,19-12V66c0-7.63-4.26-11.44-9.32-8.8-2.35,1.17-2.64,2.42-2.13,2.49a3.78,3.78,0,0,1,2.71,1.62,4.14,4.14,0,0,1-1.1,5.79A4.21,4.21,0,0,1,432.7,66a4.31,4.31,0,0,1-.22-4.4c.73-1.25,1.68-3.23,5.72-5.35a14.65,14.65,0,0,1,7.12-1.47c9.61,0,12.25,6,12.25,14.67V80.42s-.08,5.14,3.52,5.14A2.17,2.17,0,0,0,463.07,84.31Zm-14.74-12.4c-7.2,1.62-9.62,5.06-9.62,8.81,0,0,0,4.84,4.77,4.84a5.44,5.44,0,0,0,4.85-3.74Z"/><path class="cls-1" d="M492.79,82.26l1.1.66A12.63,12.63,0,0,1,483,90c-5.8,0-9.25-2.34-9.25-11.22V56.73h-3.66l-.22-1.25h3.88V45.65L483,44.11V55.48h8.74l-.3,1.25H483V78.59c0,4.11,1.77,6.23,5.43,6.23A5.4,5.4,0,0,0,492.79,82.26Z"/><path class="cls-1" d="M545.54,82.26l1.1.66A12.62,12.62,0,0,1,535.78,90c-5.79,0-9.24-2.34-9.24-11.22V56.73h-3.67l-.22-1.25h3.89V45.65l9.17-1.54V55.48h8.73l-.3,1.25h-8.43V78.59c0,4.11,1.76,6.23,5.43,6.23A5.39,5.39,0,0,0,545.54,82.26Z"/><path class="cls-1" d="M589.41,88.13v1.24h-15V88.13c2.79-.81,2.94-4,2.94-7.78V66.48c0-4.18-1.91-6.16-6.17-6.16-2,0-4.55,1.47-6.09,4.4V80.35c0,4,.37,7,3,7.7v1.32H553V88.05c2.79-.8,2.93-4,2.93-7.7v-37c0-2.56-.73-3.3-3.66-4.4V37.72l12.83-3.08v28.1c1.4-3.89,7.56-7.92,12.11-7.92,5.87,0,9.24,2.57,9.24,11.37V80.35C586.4,84.38,586.84,87.47,589.41,88.13Z"/><path class="cls-1" d="M629.69,71.77H606.36c.59,7.19,4.26,10.93,9.17,12,4,.88,9.83-.59,11.67-4l1.24.66c-1.17,3.82-5.5,9.61-15.33,9.61-9.61,0-16.21-8.87-16.21-17.46,0-10.34,7-17.75,17.16-17.75C624.7,54.82,629.69,60.32,629.69,71.77Zm-9-1.25c0-9.25-3-14.45-7-14.45-4.33,0-7.34,7.41-7.34,14.45Z"/><g id="Cancer"><path class="cls-1" d="M218.81,38.88l-1.06,4.25A10.89,10.89,0,0,1,216,46.67a20.36,20.36,0,0,0-3.9,5.67L201.82,72.17c-1.07,2.12-2.13,4.6-3.19,6.72a15.92,15.92,0,0,0-3.54,4.61c-5.67,9.2-12,17.7-18.06,26.55a101.16,101.16,0,0,1-9.56,12l-1.06,1.77c-.71.71-1.42,1.42-2.48.71a1.57,1.57,0,0,1-1.06-2.12c0-1.42.35-2.84.35-4.61v-1.06a86.08,86.08,0,0,1,3.54-8.5c5.67-9.56,11.33-19.47,17.35-29.39a316.68,316.68,0,0,0,21.95-42.13,81.57,81.57,0,0,0,3.19-8.5c.36-1.06.36-2.12.71-3.19.35-2.48-.35-3.89-2.83-5-6-2.12-11.69-2.47-17.71-.35a129.36,129.36,0,0,0-16.28,6.38c-5.67,3.54-11.34,6.72-17,10.62-8.85,5.66-17,12.39-25.14,19.12a15.87,15.87,0,0,1-4.6,3.54c1.06-2.12,2.83-3.54,4.24-5,3.55-2.83,6.73-5.66,9.92-8.5a12.27,12.27,0,0,0,3.19-4.25A23.76,23.76,0,0,0,154.37,35c-4.25,1.06-8.15,2.83-10.62,6.72a12.6,12.6,0,0,0-3.19,1.42c-3.9,3.9-9.21,6.37-12.39,11-.36.71-1.07.71-1.42,1.06-3.19,1.77-3.54,2.48-2.48,6a29,29,0,0,1-6,7.08l-9.56,9.92c-1.41,1.41-2.48,2.83-3.89,3.54V78.89a12.86,12.86,0,0,0-5,5.67c1.77-.35,3.19-1.77,5-2.83A11,11,0,0,1,102,85.62a326.29,326.29,0,0,0-30.8,41.78c-6,9.21-12,18.42-16.64,28.68-2.48,5-5.31,9.57-7.79,14.52a24.14,24.14,0,0,1-2.48,3.9c-.71,4.6-2.83,8.14-4.61,12a85.1,85.1,0,0,0-5.31,13.1,36.17,36.17,0,0,1-2.12,5.66,108.43,108.43,0,0,0-6,18.06c-1.06,5-2.48,9.56-3.9,14.52a16.26,16.26,0,0,1-1.77,3.54,3.8,3.8,0,0,0-.35,2.83,3.55,3.55,0,0,1-1.42,3.9c-.7.7-1.06,1.41-.7,2.12,1.77,3.54.7,7.08-.36,10.62v.71a5,5,0,0,1-.35,3.19c-.71,1.42-1.42,2.48-1.42,3.89-.35,5.67-.35,11.33,1.06,16.64A8.79,8.79,0,0,0,19.82,291h-.36l1.06,1.77c1.77,2.13,4.25,2.48,6.73,1.77a58.48,58.48,0,0,0,11-4.25c3.54-2.12,6.73-4.25,10.27-6,2.83-1.77,5.66-3.19,7.43-6,0-.35.71-.71,1.07-.71,4.6-2.83,7.78-6.72,12-9.91a14.06,14.06,0,0,0,3.55-2.83,89.29,89.29,0,0,1,8.85-7.44c1.06-.35,1.77-1.42,2.48-2.12,3.89-3.19,7.79-6.38,11.68-9.92,2.48-2.12,5.31-4.6,7.79-7.08a96.12,96.12,0,0,1,8.85-8.14,39.3,39.3,0,0,0,3.54-3.9,25.74,25.74,0,0,1,6.38-6,21.41,21.41,0,0,0,4.25-3.89,74.25,74.25,0,0,1,13.1-12.75,28.59,28.59,0,0,0,4.6-4.6,41.84,41.84,0,0,1,6.73-7.08,27.17,27.17,0,0,0,6.37-6.38,14,14,0,0,1,3.54-2.83,1.85,1.85,0,0,1,2.83,1.42,9.87,9.87,0,0,1-.35,3.18,10.69,10.69,0,0,0-2.48,3.9,6.25,6.25,0,0,0,2.48-3.9,18,18,0,0,1,4.25-.7c2.12,0,3.19,1.41,2.83,3.18a8,8,0,0,1-2.83,5c-4.6,3.89-8.14,8.5-12,12.39-6,6-11.68,11.69-17.7,17.35-11,10.27-21.6,20.89-32.93,31.16A508.15,508.15,0,0,1,63,291.7c-3.54,2.48-7.43,5-11.33,7.43-.7.71-1.77,1.07-2.47,1.77l-.36.71c.36.71.71.71,1.06.36a17.51,17.51,0,0,0,3.9-1.42c2.83-1.77,6-3.54,8.85-5.66A220.06,220.06,0,0,0,82.14,279.3c10.26-8.85,19.82-18.05,29.74-26.91C120,244.61,128.17,236.82,136,229l17.35-17c3.89-3.9,8.14-8.5,12-12.75a24.82,24.82,0,0,1,5.67-4.6c-.35,1.42-1.77,2.83-3.19,4.25a145.28,145.28,0,0,1-9.91,11l-36.12,35.41c-11.33,11.33-23.37,22-35.41,32.58-8.49,7.43-17.35,14.87-26.55,21.6a68.26,68.26,0,0,1-16.64,8.85c-9.21,3.54-22.31.35-28.33-5.67a91.94,91.94,0,0,1-8.14-8.49,24.26,24.26,0,0,1-5-12A59,59,0,0,1,.34,261.25a4.45,4.45,0,0,0,.36-2.13c-.36-11,2.83-21.24,5.31-31.87l3.18-13.8a39.86,39.86,0,0,1,2.48-5.67,37.65,37.65,0,0,0,3.19-8.85c1.42-5.67,3.19-11.33,6.73-15.94A14.94,14.94,0,0,0,23,179.45c2.84-8.85,7.09-17,11.33-25.14a7.65,7.65,0,0,0,1.77-2.83c2.48-7.79,7.44-14.16,11.33-20.89,1.78-3.19,3.9-6,5.67-9.21,2.13-2.83,4.25-5.66,5.31-9.2l1.42-2.13c3.18-4.6,6.37-8.85,9.56-13.45A70.64,70.64,0,0,0,74,90.22l2.13-2.47c4.6-4.25,7.79-9.21,11.33-14.17a22.47,22.47,0,0,1,2.83-3.18c5-5,9.91-9.56,14.16-14.87,3.9-4.26,8.15-8.15,12.39-12.05l4.26-3.18A43.18,43.18,0,0,0,127.46,35a6.31,6.31,0,0,1,2.83-2.48c4.6-3.19,8.85-6.37,13.46-9.92a19.4,19.4,0,0,1,2.83-1.77,20,20,0,0,0,2.83-1.77,14.12,14.12,0,0,1,8.14-4.25l2.13-1.06c2.83-2.48,6.37-3.89,9.91-5.31l1.07-.71c6-3.54,12.39-4.95,18.76-6.72A31.85,31.85,0,0,1,203.59.64a15.13,15.13,0,0,1,9.56,7.08C219.17,17.28,221.65,27.91,218.81,38.88ZM125.33,60.13l1.07-.71C126,59.77,125.69,60.13,125.33,60.13Zm.71-.71h0Zm45.32,134.91a.34.34,0,0,0-.35.35v-.35Z"/><path class="cls-1" d="M347.34,177c0,.71-.35,1.42,0,2.13a4.37,4.37,0,0,1-1.42,2.83,12.86,12.86,0,0,0-3.54,2.48c-2.12,1.42-4.6,2.48-6,4.61a12.31,12.31,0,0,0-3.18,1.41c-12.75,7.79-25.85,14.87-39,22.31a126.78,126.78,0,0,1-25.49,11.33,30.1,30.1,0,0,1-8.14,1.06,9.59,9.59,0,0,1-6-2.83,16.8,16.8,0,0,1-7.08-12.75,13.48,13.48,0,0,0-1.06-6.37c-.71-1.07-1.42-1.42-2.48-1.07a35.53,35.53,0,0,0-3.55,1.77c-5.66,3.19-11.33,6.38-17.34,9.21-9.92,5.31-19.83,10.62-30.81,13.46a38.08,38.08,0,0,1-6.73,1.41,8.71,8.71,0,0,1-7.79-3.18c-.71-1.07-1.77-1.77-2.48-2.84a13.53,13.53,0,0,1-3.89-8.85c-.36-1.77-.36-3.54-.71-5.31-.71-6.73,1.42-12.75,6-18.06a44,44,0,0,1,3.89-4.25,79.57,79.57,0,0,1,20.19-17.35c2.48-1.77,4.95-3.18,7.08-5.31a25.31,25.31,0,0,1,6.37-4.25c5.31-3.18,11-6.37,17.35-8.14a1.08,1.08,0,0,0,.71-.36c1.77-.35,14.17-1.41,15.94-1.06,5,.71,8.14,3.9,10.62,8.15.71,1.41,1.41,3.54,2.12,5.31.71,1.06,1.06,2.48,1.77,3.54a1.58,1.58,0,0,0,2.13.71c.35,0,.7-.36,1.41-.71,2.84-.71,5.31.35,5.67,3.19s.71,4.95,2.83,6.72a2.68,2.68,0,0,1,.71,1.77c.71,1.42-.71,2.48-.71,3.9-.35,1.41,1.42,2.48,1.42,4.25a3.58,3.58,0,0,1-1.42,1.77c-4.6,3.19-6,8.5-8.5,13.1a1.59,1.59,0,0,0,0,1.77,3.22,3.22,0,0,0,1.77.35c4.61-1.41,9.21-2.83,13.11-5.31,6.37-3.89,13.09-7.43,19.47-11l2.48-1.07c5.66-3.89,12-6.37,17.7-9.91a18.7,18.7,0,0,1,3.9-1.77c3.89-.71,7.08-2.48,10.62-4.25a31.46,31.46,0,0,1,6-2.83,1.74,1.74,0,0,1,2.12,1.41,8.62,8.62,0,0,1-1.41,3.19,1.31,1.31,0,0,1,1.06.35C347.69,172,348.05,172.73,347.34,177Zm-97-10.62a8.82,8.82,0,0,0-4.25-.35c-8.5,1.06-16.64,3.89-23.37,9.56-.35.35-.71.35-.71.71a11.63,11.63,0,0,0-4.6,2.47c-4.6,3.55-9.21,6.73-13.46,10.63s-8.49,8.14-12.39,12.39a3.06,3.06,0,0,0-1.06,2.12c-.36.36,0,1.07.35,1.42,0,.35.71.35,1.07.35a2.75,2.75,0,0,0,1.77-.7,29.14,29.14,0,0,1,7.79-2.84,40.92,40.92,0,0,0,8.85-4.24,7.57,7.57,0,0,1,2.83-1.77c7.08-3.9,14.16-7.79,21.6-11.33,3.54-2.13,7.08-4.26,10.62-6.73a28.11,28.11,0,0,0,6.73-7.79C253.15,168.48,252.44,167.06,250.32,166.35Z"/><path class="cls-1" d="M515.17,200a24.24,24.24,0,0,1-4.61,1.77l-18.76,5.31c-13.1,3.54-25.49,9.21-38.24,13.81-5.67,2.48-11.69,5-17.71,7.08a104.21,104.21,0,0,1-11.33,3.54,11.67,11.67,0,0,0-3.18,1.06.76.76,0,0,0-.71.71,1.14,1.14,0,0,0,1.06,1.07c1.77-.36,3.89-.36,5.66-1.07,3.9-1.06,7.44-2.12,11.34-3.54l26.91-11a199.73,199.73,0,0,1,28-9.56c6-1.77,12-3.55,18.06-5.67,1.06-.35,2.12-1.06,3.19-.71.35,0,.35,0,.35.36v.35c-.35.35-1.06,1.06-1.42,1.06-3.89,1.42-7.79,2.84-11.68,3.9-9.56,2.83-19.12,5.31-28.33,9.21l-24.08,9.55a206.45,206.45,0,0,1-24.78,8.86c-3.19.71-6,1.41-9.21-.36-3.19-2.12-6.73-4.6-7.79-8.85a79.9,79.9,0,0,1-1.42-8.14,14.37,14.37,0,0,1,2.48-11.33l8.5-11.33,6.37-7.44c1.77-1.77,2.48-3.89,3.19-6.37a4.74,4.74,0,0,0-3.19.35c-6.72,2.48-13.1,5.31-19.83,8.15-14.16,6.37-28.32,13.8-42.48,20.53-8.86,4.25-17.36,8.5-26.91,11l-3.54,1.06a10.67,10.67,0,0,1-7.44-1.77c-3.9-2.83-6.38-6-6.38-11a15.67,15.67,0,0,0-.35-1.77c-1.42-5.66,0-10.62,2.83-15.58a200.82,200.82,0,0,1,19.83-25.84,28.65,28.65,0,0,1,4.6-4.61c1.42-1.06,2.48-.7,3.54.71l1.78,2.83a7.07,7.07,0,0,1,0,7.44l-4.61,7.43c-1.06,1.77-2.48,3.19-2.48,5.32-3.18,2.83-5.31,6.72-7.78,9.91-.36.71-.36,1.42.35,1.77a8,8,0,0,0,7.43.71,34.19,34.19,0,0,1,9.92-3.9,1.86,1.86,0,0,0,1.42-.7c5.66-3.54,11.68-5.67,17.34-8.86,6.38-3.54,13.11-6,19.48-9.56,5.66-2.83,11.68-4.95,17.71-7.79,4.24-2.12,9.2-3.18,13.45-5.66a45.36,45.36,0,0,1,6.37-2.13l8.15-2.12c5.66-1.42,9.91.35,12.39,5.67.71,1.77,1.77,3.18,2.48,5,2.12,4.6,2.12,9.21-1.42,13.46-4.25,5.31-8.85,10.27-12.39,15.93a12.15,12.15,0,0,1-3.54,3.89c-.71,1.07-.35,1.77,1.42,2.13-1.07,1.77-1.77,3.89-2.84,5.66a1.42,1.42,0,0,0,1.77,1.78h.71c5.31-3.19,11.33-3.9,16.64-6.38,5.67-2.48,11.33-4.25,17-7.08a121.45,121.45,0,0,1,15.93-5.31c6.73-2.12,13.46-3.89,20.54-5.67,1.77-.7,3.89-.7,5.66-1.06a2.7,2.7,0,0,1,3.19,1.06,1.71,1.71,0,0,1,0,2.48,2.38,2.38,0,0,0,1.07,2.84l1.06.7C518.71,195.74,518.36,198.57,515.17,200Zm-92.77-30.1L420.27,172c-.35-.36-1.06-.71,0-1.42C420.63,170.25,421.69,170.25,422.4,169.89Z"/><path class="cls-1" d="M674.86,192.91c.7,3.19-1.78,3.54-3.9,4.6A216.87,216.87,0,0,1,649.71,205c-20.89,7.08-42.13,12.75-63.38,17.7A199.18,199.18,0,0,1,550.92,228H544.2a76.81,76.81,0,0,0-12.75-.71,37.43,37.43,0,0,1-11-1.41c-6.72-1.77-12.39-8.14-13.1-14.87a73.35,73.35,0,0,1,0-12.4,22.24,22.24,0,0,1,2.13-6.37,45.37,45.37,0,0,1,6.73-11.33c3.89-4.6,7.78-8.85,11.68-13.1,4.6-4.25,8.85-8.14,14.87-9.92a15.61,15.61,0,0,0,2.48-1.41c3.89-3.19,8.5-3.9,12.74-4.61h7.8c3.89,0,7.08,1.42,10.26,3.19a8.38,8.38,0,0,1,3.9,4.61A30.57,30.57,0,0,1,583.14,172a8.8,8.8,0,0,1-2.47,7.79,65.3,65.3,0,0,0-4.25,6.37,7.28,7.28,0,0,1-2.83,2.84c-2.48,1.41-5,0-5.67-2.48a11.94,11.94,0,0,1,1.42-7.8l2.12-3.54c1.42-2.47.71-3.89-1.41-4.6a26.91,26.91,0,0,0-7.44-1.06,30.71,30.71,0,0,0-12,4.25,44,44,0,0,0-8.14,6C535.7,186.18,529,192.56,524,200.34c-2.47,3.54-2.47,6,2.48,6.38,5.67,1.06,11.33.71,18.77,1.06A102.71,102.71,0,0,0,567.57,206c6-1.06,12-2.48,18-3.9,6.73-1.41,13.11-3.18,19.83-4.6,9.21-1.77,17.71-4.6,26.56-6.72a31.74,31.74,0,0,0,7.43-2.84,7.67,7.67,0,0,1,2.48-1.06L666,180.51a24.2,24.2,0,0,1,5-.7c1.77-.36,4.25,1.41,3.19,3.54a5.55,5.55,0,0,0,1.41,4.6c1.07,1.07,1.07,2.48,0,3.9C675.21,192.2,674.5,192.56,674.86,192.91Z"/><path class="cls-1" d="M801.26,195.74a5,5,0,0,1-2.13.71c-1.77,0-3.19,1.06-4.6,1.77a325,325,0,0,1-31.87,14.52c-13.1,5-26.2,9.91-40,12.74-8.5,1.42-17,2.84-25.85,2.48-7.44-.35-13.81-2.48-19.47-7.79a28.27,28.27,0,0,1-7.79-15.93c-.36-3.9-.36-8.14-.36-12,0-8.85,3.19-16.29,8.5-23,4.25-5.31,9.56-9.92,14.52-14.17s10.62-5.31,16.64-5.66a11,11,0,0,1,9.91,5.31c3.19,5.31,5.67,11,6,17.7a12.33,12.33,0,0,1-3.55,10.27c-2.12,2.48-4.25,4.6-5.66,7.79a9.22,9.22,0,0,1-3.9,3.54,127.25,127.25,0,0,1-21.6,9.21,12.17,12.17,0,0,1-3.54.35c-.35,0-1.06,0-1.06-.71,0-.35.71-.71,1.06-.71a4.56,4.56,0,0,1,2.13-.35,52.75,52.75,0,0,0,14.16-5.31l1.42-1.06v-.71a.35.35,0,0,0-.36-.35c-1.06.35-2.12.35-2.83.7-5,2.13-10.27,3.54-15.93,5.31a6.65,6.65,0,0,0-2.48.71,2.16,2.16,0,0,0-.36,3.54,7.17,7.17,0,0,0,2.84,1.42,40.25,40.25,0,0,0,13.1,1.77c6-.35,12.39-1.06,18.41-1.77a96.37,96.37,0,0,0,17.35-4.6H735c9.92-2.48,19.48-6.73,29-10.62l16.64-6.38c3.54-1.06,7.08-2.48,10.62-3.9l3.19-1.06c2.48-.71,3.89.36,3.89,2.84,0,1.77.71,2.83,1.77,4.25,1.42,1.41,1.78,3.18.36,4.6-.71,1.06-.71,1.77,0,2.48C800.9,194.33,800.9,195,801.26,195.74ZM692.91,179.45c0,2.13.7,2.84,2.12,2.48a30.06,30.06,0,0,0,7.79-3.19,26.78,26.78,0,0,0,7.08-7.08,3,3,0,0,0,0-2.47,1.67,1.67,0,0,0-2.12-.36c-3.19.36-5.67,2.13-7.79,3.54-1.77,1.06-2.83,2.48-4.6,3.19C693.61,176.62,692.55,177.68,692.91,179.45ZM801.26,196.8c-.71,0-1.42-.35-2.13-.35A4.56,4.56,0,0,1,801.26,196.8Z"/><path class="cls-1" d="M931.56,198.57c-1.06.36-2.12.36-3.19.71A274.54,274.54,0,0,1,894,202.82c-3.9.36-8.15.71-12,.71-6.73.35-13.46-.71-20.18-1.06h-4.25a1.23,1.23,0,0,0-.71.35.76.76,0,0,0,.71.71,5,5,0,0,0,2.12.71A65.12,65.12,0,0,0,876.32,206a172.18,172.18,0,0,0,23.37-.71c7.44-1.06,14.87-1.77,22.31-2.48,2.48-.35,5-1.06,7.44-1.41h.7c0,.35,0,.7-.35.7l-1.06.71a17.57,17.57,0,0,1-4.25.71c-16.64,2.48-33.64,4.25-50.28,4.25a112.21,112.21,0,0,1-22-2.13,33.75,33.75,0,0,1-16.65-9.2,22.2,22.2,0,0,1-6-11.33c-.7-4.61-2.47-5.31-6-2.13l-5.31,4.25-1.06,1.07h1.06l-1.06,1.06a51.28,51.28,0,0,0-7.79,5.31,7.19,7.19,0,0,1-2.83,1.42l-2.13,2.12a4.2,4.2,0,0,1-1.77,1.77h-1.06a7.79,7.79,0,0,0-1.77,2.83c-.35,2.13-2.12,2.83-3.19,4.25a3,3,0,0,1-2.12,1.06,1.79,1.79,0,0,0-2.48,1.77,9.23,9.23,0,0,1-2.48,3.9c-3.89,5-8.85,9.21-13.45,13.45-1.06,1.42-4.61.71-5.31-1.41-.71-1.06-1.07-2.13-2.48-2.83a2.49,2.49,0,0,1-1.42-3.19c0-2.48.35-5.31-.71-7.79-.35-1.77.71-3.54,1.42-5,5-8.5,9.91-16.64,14.87-24.78a81.12,81.12,0,0,1,4.6-7.09c1.42-1.77,3.54-1.77,4.6.71.36.71.36,1.77.71,2.48,1.07,1.77,2.48,2.48,4.25,1.42a13,13,0,0,0,2.84-1.77c3.18-2.84,6.37-5.67,9.56-8.15,4.6-3.89,9.2-8.14,14.87-10.62,1.42-.35,2.83-1.06,4.6-1.42,2.48-.7,4.6,0,5.67,2.48,2.47,5,4.95,9.56,5.31,15.23a7,7,0,0,0,.35,2.48,4.14,4.14,0,0,0,2.83,3.89,8,8,0,0,1,1.77,1.06c8.15,2.48,16.29,4.61,24.79,4.61,3.19,0,6.37.35,9.56.35a13.19,13.19,0,0,0,5.31,0c3.54-.35,7.44-.35,11-.35,9.21.35,18.41-1.42,27.62-1.06,1.77,0,3.89-.71,6-1.07h3.19a1.3,1.3,0,0,1,1.41,1.42,1.29,1.29,0,0,1-.71,1.77,6.26,6.26,0,0,1-3.54,1.42c-1.06.35-2.12.35-3.19.71a1.22,1.22,0,0,0-.7.35.93.93,0,0,0,1.06,1.06,13.4,13.4,0,0,1,3.89-.35c2.84-.71,4.25.71,4.61,2.48S933.69,197.51,931.56,198.57Z"/></g></g></g></g></svg>